inDegrees=no
num_controls=7
num_derivatives=13
num_iterations=125
num_multipliers=7
num_parameters=0
num_slacks=7
num_states=26
objective=5.631329
objective_accelerations=0.735592
objective_balance=0.077782
objective_effort=0.689301
objective_height=4.074767
objective_ligament=0.053888
solver_duration=1277.258093
status=Solve_Succeeded
success=true
DataType=double
version=3
OpenSimVersion=4.4-2022-07-23-0e9fedc
endheader
time	/jointset/ground_pelvis/pelvis_tilt/value	/jointset/ground_pelvis/pelvis_tx/value	/jointset/ground_pelvis/pelvis_ty/value	/jointset/hip_l/hip_flexion_l/value	/jointset/hip_l/hip_adduction_l/value	/jointset/hip_l/hip_rotation_l/value	/jointset/back/lumbar_extension/value	/jointset/patellofemoral_l/patellar_flexion_l/value	/jointset/knee_l/knee_flexion_l/value	/jointset/knee_l/knee_adduction_l/value	/jointset/knee_l/knee_rotation_l/value	/jointset/ankle_l/ankle_angle_l/value	/jointset/subtalar_l/subtalar_angle_l/value	/jointset/ground_pelvis/pelvis_tilt/speed	/jointset/ground_pelvis/pelvis_tx/speed	/jointset/ground_pelvis/pelvis_ty/speed	/jointset/hip_l/hip_flexion_l/speed	/jointset/hip_l/hip_adduction_l/speed	/jointset/hip_l/hip_rotation_l/speed	/jointset/back/lumbar_extension/speed	/jointset/patellofemoral_l/patellar_flexion_l/speed	/jointset/knee_l/knee_flexion_l/speed	/jointset/knee_l/knee_adduction_l/speed	/jointset/knee_l/knee_rotation_l/speed	/jointset/ankle_l/ankle_angle_l/speed	/jointset/subtalar_l/subtalar_angle_l/speed	/forceset/tau_hip_flexion_l	/forceset/tau_hip_adduction_l	/forceset/tau_hip_rotation_l	/forceset/tau_knee_flexion_l	/forceset/tau_ankle_angle_l	/forceset/tau_subtalar_angle_l	/forceset/tau_lumbar_extension	lambda_cid13_p0	lambda_cid13_p1	lambda_cid13_p2	lambda_cid13_p3	lambda_cid13_p4	lambda_cid13_p5	lambda_cid14_p0	/jointset/ground_pelvis/pelvis_tilt/accel	/jointset/ground_pelvis/pelvis_tx/accel	/jointset/ground_pelvis/pelvis_ty/accel	/jointset/hip_l/hip_flexion_l/accel	/jointset/hip_l/hip_adduction_l/accel	/jointset/hip_l/hip_rotation_l/accel	/jointset/back/lumbar_extension/accel	/jointset/patellofemoral_l/patellar_flexion_l/accel	/jointset/knee_l/knee_flexion_l/accel	/jointset/knee_l/knee_adduction_l/accel	/jointset/knee_l/knee_rotation_l/accel	/jointset/ankle_l/ankle_angle_l/accel	/jointset/subtalar_l/subtalar_angle_l/accel	gamma_cid13_p0	gamma_cid13_p1	gamma_cid13_p2	gamma_cid13_p3	gamma_cid13_p4	gamma_cid13_p5	gamma_cid14_p0
1	-0.1306990740759503	-0.05681428734465391	0.4252262638861439	2.090633726378196	-0.3001973602223699	0.1212498893202212	-0.9599304534726462	2.093551885427692	2.093551885427666	0.1745329151586484	-0.1745329251994329	0.2830729543670267	0.1033701984132819	0.03939094227901301	0.005981516454929556	0.05525614660520907	-0.2212068009133753	-0.01695775854551845	-0.04282390023200451	8.155249926561403e-06	-0.09858424764780124	-0.09858424764779387	-0.003977137030585781	4.955026370982068e-06	0.08025744033474019	0.01714532650679011	-0.3969204733326232	-0.02542157740152771	-0.06218419995824621	-0.3986506165795444	0.05465107043452928	-0.003860873775227204	0.4386484501977073	-37.97919505428135	18.0652410907173	-14.45820358623751	23.81547832017134	-829.6380165134788	-16.1797362625322	-0.02292632193720609	-0.3376308724006571	-0.5084480308991721	2.152447219972736	-6.529947870904412	-0.3651151793325186	-1.684695611857242	-0.006055114264913532	-5.743680539446768	-5.743680539446109	-0.783860743990788	-0.01851150233235536	0.7746535987178389	-0.08295582440386275	-2.27692513466023e-08	5.389092446286374e-08	-1.37605246843756e-07	8.087210598455738e-08	2.68447604150411e-09	-5.456305604047439e-09	9.861529073426655e-09
1.01	-0.1303225071429693	-0.05678008805442522	0.4258872841307417	2.08809294626894	-0.300383855285843	0.120739885419591	-0.9599304919517716	2.092276404020553	2.092276404020535	0.1744515551324816	-0.1745326129843998	0.2839143317561089	0.1035393070567252	0.03590298267772048	0.0008451704609472495	0.07702850218819772	-0.287144238162385	-0.02031727337437963	-0.0591388343186752	-1.223324373321597e-05	-0.1567478110328853	-0.156747811032864	-0.01240337939529119	5.611167995156745e-05	0.08798157280837601	0.01669027845339253	-0.3983555189124774	-0.025162931796071	-0.06219238320177099	-0.4011828006387355	0.05443302330407878	-0.003654204567867033	0.4402852537680706	-38.24417659402858	18.04503596499869	-14.48143117389401	24.2414676534011	-832.5646713081254	-16.6967748907314	-0.02301897177328363	-0.3572978820440389	-0.5181914628475885	2.201716462403295	-6.654895791884365	-0.3177355214774707	-1.599189154640564	0.0005119576995740464	-5.888062828963908	-5.888062828962284	-0.8882717655560538	0.01644513509978611	0.7658188134228416	-0.0246833773625524	-1.7682010261305e-08	4.683799209848709e-08	-1.76658503490262e-07	6.065528934805543e-08	-1.604156687567984e-08	-2.501882310332352e-08	1.0013498709763e-08
1.02	-0.129981403681607	-0.05679764493997648	0.4267684452781577	2.084886940959197	-0.3006032186749662	0.1200678728085784	-0.9599306257809	2.090412213261378	2.090412213261368	0.1742826795260581	-0.174531877930057	0.2848318556182758	0.1037042844033233	0.03229824795440143	-0.004369718701061526	0.09928432716882042	-0.3542518410108035	-0.02353142367582687	-0.07522564230809255	-1.091475275704932e-05	-0.2163261180549555	-0.2163261180549238	-0.02148025307381926	8.790376938734478e-05	0.09548673495146837	0.01631906713779575	-0.3997905644923344	-0.02490428619062046	-0.06220056644535716	-0.4037149846979246	0.05421497617362903	-0.003447535360514252	0.4419220573384323	-38.50024625688549	18.02584609312146	-14.50776204259945	24.64598120908923	-835.371302136279	-17.16722531612459	-0.02315851108039443	-0.3609858968059834	-0.5241566645044436	2.249141099499552	-6.763980990786146	-0.3360422738498586	-1.639070392406638	-0.001713717337696929	-6.026629266843993	-6.026629266844046	-0.9139870067553314	-0.02238441516151463	0.7308595326091687	-0.06618847684386474	-7.444668567473045e-09	1.487294621440975e-08	-2.71707638345273e-07	3.822737686357173e-08	-4.336688463905359e-08	-2.187697713001919e-07	2.390681576886904e-08
1.03	-0.1296766440594403	-0.05686761479754337	0.4278745206716567	2.081004241127299	-0.3008539501124895	0.1192362958025483	-0.9599306835865898	2.087945447753572	2.087945447753571	0.1740197847478349	-0.174530985611157	0.2858231193948441	0.1038659252624629	0.02866305872121337	-0.009624405837947176	0.1220053297212799	-0.4224593664459274	-0.02658799287552995	-0.09108681493446637	-1.660539622251041e-06	-0.2772347847647415	-0.2772347847647023	-0.03116050273978161	9.800411075688097e-05	0.1027058885700627	0.01601587190490695	-0.4011793499101857	-0.02458999506162528	-0.06213863360768435	-0.4063854229980103	0.05426916000966149	-0.003094125512176712	0.443583488583986	-38.64922446410556	17.91308099650869	-14.50650209354911	24.82885616082114	-838.1299796443817	-17.8162317149814	-0.02333508240465001	-0.3633763647541959	-0.5261446727689132	2.294752239538243	-6.87482436040456	-0.2863676596210601	-1.559200483962526	0.002092867649515833	-6.154163234921981	-6.154163234920863	-1.004280041770867	0.0137393955788254	0.70841819316516	-0.01132237780068063	2.845225173384808e-09	-1.734630490966467e-08	-3.67328159712616e-07	1.57769021765576e-08	-7.077995010493953e-08	-4.142981524633632e-07	3.794035065881973e-08
1.04	-0.1294079545152375	-0.05699013551337694	0.4292100405719641	2.076434328832943	-0.3011344279253265	0.1182461951130124	-0.9599306792747566	2.084863360006293	2.084863360006302	0.1736582402538766	-0.1745297858614619	0.2868847696909353	0.1040247467030155	0.02508423236085967	-0.01487989035439812	0.1451732285304798	-0.4916943335022178	-0.02948069873885683	-0.1069303790092341	1.508753922556427e-06	-0.3393905659495696	-0.3393905659495227	-0.0412101962159086	0.0001493899238287803	0.1095640388558817	0.01575518342044349	-0.4025681353280411	-0.02427570393263419	-0.06207670077005074	-0.4090558612980945	0.05432334384569554	-0.002740715663843488	0.4452449198295375	-38.78947283459476	17.80055233966153	-14.50729527520807	24.99236580465837	-840.7696748033457	-18.42450357225556	-0.02355994389812109	-0.3497133222391205	-0.5243161404174894	2.338520350847636	-6.96946931501942	-0.3032696065747223	-1.635548682085476	-0.002930701255688711	-6.27605216185241	-6.276052161852429	-0.9878757687882659	-0.01412732082120242	0.6586588660540982	-0.05768712715893255	1.510795935517003e-08	-5.470840716087743e-08	-4.680371068587264e-07	-9.768765732223737e-09	-9.990428807736152e-08	-6.316266426959824e-07	5.378955009571448e-08
1.05	-0.1291745282088027	-0.05716508498403936	0.4307793769847976	2.071167330376349	-0.3014429466254303	0.1170984558059644	-0.9599306737346981	2.081153799008848	2.081153799008879	0.1731938714848278	-0.1745281058024307	0.2880129012053875	0.104181109839115	0.02163430440216466	-0.02009719382960607	0.1687591930581276	-0.5618376132449262	-0.03218963078251391	-0.122587464805217	-1.358025834326938e-06	-0.402698508784645	-0.4026985087845966	-0.05173331294404797	0.0001864346255047557	0.1159720363284347	0.01551776581335649	-0.4038348619648913	-0.02391504148533838	-0.06192030819526561	-0.4118281987222516	0.05465476291461133	-0.002224140869922155	0.4468581158091819	-38.81350891303775	17.58275302604369	-14.4752458825254	24.93208423835323	-843.2594258097412	-19.23023776595351	-0.02382401832809968	-0.3376370717454772	-0.5185233000351759	2.378379245864796	-7.056593228017524	-0.2495975072704932	-1.52628340763752	0.0008917409911468888	-6.384710730872794	-6.384710730872593	-1.094933819992702	0.01245465365096613	0.6183302979390086	-0.006637210526637329	2.743234480073423e-08	-9.223122350981324e-08	-5.689050673104233e-07	-3.541115842918528e-08	-1.290821033156128e-07	-8.496363863370219e-07	6.969548904970121e-08
1.06	-0.1289746020897641	-0.05739182465924655	0.4325865219913357	2.065194931937505	-0.3017775331467705	0.1157950466650999	-0.9599307255809588	2.076805849505743	2.076805849505792	0.1726221907094916	-0.1745260884387633	0.2892024047165825	0.1043351251725348	0.01838419488103307	-0.02523793126335296	0.1927349472714066	-0.6327743299524772	-0.03469426298654309	-0.1380643457725168	-9.968512525613018e-06	-0.4670682670812281	-0.4670682670811782	-0.0626725974788233	0.0002168508467383698	0.121838438204313	0.01528562288454648	-0.4051015886017392	-0.02355437903804727	-0.06176391562043527	-0.4146005361464095	0.05498618198352617	-0.001707566076008273	0.448471311788829	-38.82930455794341	17.36436065749328	-14.44407205105488	24.85624340527675	-845.6352222966586	-20.00156159824158	-0.02413655781438968	-0.309749634726435	-0.5090029321252728	2.416478287973879	-7.12815670798788	-0.2624096386492109	-1.59950771634893	-0.004079442642545684	-6.488415254153971	-6.488415254153971	-1.071109330115448	-0.01545301690977628	0.5503397467191498	-0.05663219150362905	4.31875712010277e-08	-1.452088275926268e-07	-6.955050560864839e-07	-6.194682786387479e-08	-1.604304447242795e-07	-1.1617721315457e-06	9.334022587739488e-08
1.07	-0.1288059467748078	-0.05766945301869756	0.4346352680543297	2.058509638268556	-0.3021361506906309	0.1143381911486846	-0.9599308480657021	2.071809220571899	2.071809220571921	0.1719387749315816	-0.1745240268018369	0.2904475419705502	0.104486674087792	0.01540216263179661	-0.03026161054265354	0.2170692585346218	-0.7043755714715888	-0.03699436327249177	-0.1532781429121247	-1.076537868747296e-05	-0.53240370434099	-0.5324037043409782	-0.07406531199652981	0.0001916039980117239	0.127067575002851	0.01501103121333384	-0.4062611583508787	-0.02315461629399765	-0.06150319157491187	-0.4174440333737786	0.05559079225378063	-0.001034383040428392	0.4500567184557066	-38.72980683420953	17.04283582629379	-14.37940244135554	24.54898528004053	-847.8561702051923	-20.96344807612181	-0.02448790513985532	-0.2841270288196387	-0.4951489951423715	2.450117702788846	-7.189776139552379	-0.2084447361014677	-1.478011295416071	0.002484650601717331	-6.578059479439727	-6.578059479445478	-1.181469903246096	0.003151187773548426	0.4909785793957037	-0.0147108325418909	5.912528914146637e-08	-1.990084948527743e-07	-8.234737697734153e-07	-8.853001201865623e-08	-1.918942396526491e-07	-1.478914578965422e-06	1.173966008898602e-07
1.08	-0.1286654511841015	-0.0579965378848037	0.4369289992614143	2.051105598531278	-0.3025166961398563	0.1127300585443509	-0.9599308656273138	2.066154846961948	2.066154846961944	0.17113980853035	-0.1745223752920601	0.2917413261790976	0.1046351094508145	0.01275225003065934	-0.03512923259438193	0.2417319760895469	-0.7765235436178884	-0.0390798440597942	-0.1683197633577083	1.101612333100994e-05	-0.598617202302849	-0.5986172023028756	-0.08578272214014755	0.0001348254143923714	0.1315678291203728	0.01466291243764981	-0.4074207281000261	-0.02275485354993987	-0.06124246752941955	-0.4202875306011459	0.05619540252404037	-0.0003612000048342482	0.4516421251225806	-38.62286596382782	16.71972388158313	-14.31415501080629	24.23150169874335	-849.9722772079537	-21.89881427862251	-0.02488648638282275	-0.2433257051065818	-0.4777914866108379	2.482159546315847	-7.237502833425483	-0.219485738919999	-1.565072377544131	0.0004362309934782442	-6.664027394573329	-6.664027394573461	-1.136048455297671	-0.021759363888367	0.4045632105158685	-0.0713376123979655	7.649201792380594e-08	-2.610233083762949e-07	-9.587099563936591e-07	-1.128965164475588e-07	-2.21284595108426e-07	-1.838791991408377e-06	1.454507757328405e-07
